<?xml version="1.0" standalone="no"?><!DOCTYPE svg PUBLIC "-//W3C//DTD SVG 1.1//EN" "http://www.w3.org/Graphics/SVG/1.1/DTD/svg11.dtd"><svg t="1635306044763" class="icon" viewBox="0 0 1024 1024" version="1.1" xmlns="http://www.w3.org/2000/svg" p-id="2587" xmlns:xlink="http://www.w3.org/1999/xlink" width="200" height="200"><defs><style type="text/css"></style></defs><path d="M331.6 359.312c-33.424 37.312-51.584 85.92-49.952 135.232 0.32 4.832 0.208 7.936 1.024 14.784 0.704 5.952 1.248 12.352 2.416 17.568 1.952 10.88 4.688 21.616 8.384 31.936a186.464 186.464 0 0 0 30.88 55.456c25.664 32.096 57.712 50.688 85.888 61.984 28.624 11.024 54.544 15.264 76.256 16.24 21.744 0.864 39.424-1.056 52.368-4.368 0.48-0.112 0.832-0.256 1.296-0.368 70.32-2.432 126.624-60.064 126.624-130.976 0-72.464-58.736-131.2-131.2-131.2s-131.2 58.736-131.2 131.2c0 5.072 0.352 10.048 0.912 14.976a114.032 114.032 0 0 1-10.016-12.112c-12.432-18.096-20.16-39.536-20.128-68.384-0.96-22.448 9.312-49.376 27.008-71.04 18.032-21.664 44.336-38.944 76.784-48.016a210.88 210.88 0 0 1 25.152-5.488c4.464-0.832 8.256-1.104 12.384-1.696l14.144-1.04a162.128 162.128 0 0 1 50.112 5.168 163.072 163.072 0 0 1 85.328 55.04c21.984 26.784 35.008 61.232 39.408 95.728 4.528 35.936 1.28 70.64-10.432 100.528a165.184 165.184 0 0 1-56.16 71.104c-23.408 17.584-48.992 29.056-72.336 36.96-23.408 8.016-44.864 12.4-62.608 15.344-35.616 5.76-56.432 5.488-56.432 5.488l-0.288 5.36s20.992 2.896 58 1.28a401.072 401.072 0 0 0 66.528-8.8c25.424-5.696 54.288-14.672 82.992-31.808a198.816 198.816 0 0 0 75.104-78.8c9.008-17.712 15.44-37.168 19.728-57.392 1.712-10.128 3.616-20.432 4.16-30.832l0.64-7.84c0.08-1.536 0.256-2.128 0.272-4.432l0.128-3.632c0.192-4.752 0.352-9.648 0.16-15.488-0.512-43.312-12.672-88.912-38.864-128.8-26-39.76-65.968-72.032-112.304-89.104a239.36 239.36 0 0 0-72.608-14.944l-16.96-0.384c-6.192 0.16-12.752 0.176-18.544 0.672-11.872 0.576-23.856 2.288-35.776 4.352-47.552 8.704-95.392 32.528-128.272 70.544zM618.752 223.392L512.208 42.176s-100.128 183.808-96.416 182.464a303.568 303.568 0 0 1 103.44-18.176c34.896 0 68.288 6.144 99.52 16.928zM635.088 229.376a306.016 306.016 0 0 1 153.632 139.344c4.688-11.952 50.944-200.304 50.944-200.304l-204.576 60.96zM824.464 511.712c0 36.88-6.88 72.08-18.864 104.816l181.632-118.96L800 391.888c15.728 36.8 24.464 77.28 24.464 119.824zM801.024 629.04a306.272 306.272 0 0 1-162.896 163.872l216.208 46.592-53.312-210.464zM419.68 800l0.08 0.032-0.016-0.032zM419.76 800.032l108.416 188.8L618.8 800a304.416 304.416 0 0 1-99.568 16.944c-34.88 0-68.256-6.144-99.472-16.912zM245.456 646l-44.672 193.504 200.448-46.256a305.968 305.968 0 0 1-155.776-147.248zM214 511.712c0-34.64 6.048-67.808 16.672-98.832L60.432 512l177.904 119.248a304.208 304.208 0 0 1-24.336-119.536zM241.056 386.512a306.4 306.4 0 0 1 143.04-148.56c-18.4-6.016-215.488-53.472-215.488-53.472l72.448 202.032z" fill="" p-id="2588"></path></svg>